<?xml version="1.0" encoding="iso-8859-1"?>
<!-- Generator: Adobe Illustrator 21.0.2, SVG Export Plug-In . SVG Version: 6.00 Build 0)  -->
<svg xmlns="http://www.w3.org/2000/svg" xmlns:xlink="http://www.w3.org/1999/xlink" version="1.1" id="Layer_1" x="0px" y="0px" viewBox="0 0 40 40" style="enable-background:new 0 0 40 40;" xml:space="preserve">
<g>
	<polygon style="fill:#FFFFFF;" points="6.5,37.5 6.5,2.5 24.793,2.5 33.5,11.207 33.5,37.5  "/>
	<g>
		<path style="fill:#4788C7;" d="M24.586,3L33,11.414V37H7V3H24.586 M25,2H6v36h28V11L25,2L25,2z"/>
	</g>
</g>
<rect x="21" y="19" style="fill:#FFFFFF;" width="13" height="19"/>
<g>
	<polygon style="fill:#DFF0FE;" points="24.5,11.5 24.5,2.5 24.793,2.5 33.5,11.207 33.5,11.5  "/>
	<g>
		<path style="fill:#4788C7;" d="M25,3.414L32.586,11H25V3.414 M25,2h-1v10h10v-1L25,2L25,2z"/>
	</g>
</g>
<path style="fill:#4788C7;" d="M27.5,17h-15c-0.276,0-0.5-0.224-0.5-0.5l0,0c0-0.276,0.224-0.5,0.5-0.5h15  c0.276,0,0.5,0.224,0.5,0.5l0,0C28,16.776,27.776,17,27.5,17z"/>
<path style="fill:#4788C7;" d="M23.5,20h-11c-0.276,0-0.5-0.224-0.5-0.5l0,0c0-0.276,0.224-0.5,0.5-0.5h11  c0.276,0,0.5,0.224,0.5,0.5l0,0C24,19.776,23.776,20,23.5,20z"/>
<path style="fill:#4788C7;" d="M27.5,23h-15c-0.276,0-0.5-0.224-0.5-0.5l0,0c0-0.276,0.224-0.5,0.5-0.5h15  c0.276,0,0.5,0.224,0.5,0.5l0,0C28,22.776,27.776,23,27.5,23z"/>
<path style="fill:#4788C7;" d="M27.5,29h-15c-0.276,0-0.5-0.224-0.5-0.5l0,0c0-0.276,0.224-0.5,0.5-0.5h15  c0.276,0,0.5,0.224,0.5,0.5l0,0C28,28.776,27.776,29,27.5,29z"/>
<path style="fill:#4788C7;" d="M23.5,26h-11c-0.276,0-0.5-0.224-0.5-0.5l0,0c0-0.276,0.224-0.5,0.5-0.5h11  c0.276,0,0.5,0.224,0.5,0.5l0,0C24,25.776,23.776,26,23.5,26z"/>
<g>
	<path style="fill:#FFFFFF;" d="M28,23v-1h-2.388c-0.495,0.297-0.966,0.628-1.404,1H28z"/>
	<path style="fill:#FFFFFF;" d="M28,29v-1h-7.059c-0.097,0.327-0.179,0.66-0.245,1H28z"/>
	<path style="fill:#FFFFFF;" d="M24,26v-1h-1.61c-0.225,0.322-0.437,0.653-0.625,1H24z"/>
</g>
<g>
	<path style="fill:#98CCFD;" d="M31,39.5c-4.687,0-8.5-3.813-8.5-8.5s3.813-8.5,8.5-8.5s8.5,3.813,8.5,8.5S35.687,39.5,31,39.5z"/>
	<g>
		<path style="fill:#4788C7;" d="M31,23c4.411,0,8,3.589,8,8s-3.589,8-8,8c-4.411,0-8-3.589-8-8S26.589,23,31,23 M31,22    c-4.971,0-9,4.029-9,9s4.029,9,9,9c4.971,0,9-4.029,9-9S35.971,22,31,22L31,22z"/>
	</g>
</g>
<line style="fill:none;stroke:#FFFFFF;stroke-width:2;stroke-miterlimit:10;" x1="31" y1="36" x2="31" y2="26"/>
<line style="fill:none;stroke:#FFFFFF;stroke-width:2;stroke-miterlimit:10;" x1="26" y1="31" x2="36" y2="31"/>
<path style="fill:#4788C7;" d="M33.5,17L33.5,17c0.275,0,0.5,0.225,0.5,0.5v2c0,0.275-0.225,0.5-0.5,0.5l0,0  c-0.275,0-0.5-0.225-0.5-0.5v-2C33,17.225,33.225,17,33.5,17z"/>
<path style="fill:#4788C7;" d="M20.5,38h1c0.275,0,0.5-0.225,0.5-0.5l0,0c0-0.275-0.225-0.5-0.5-0.5h-1c-0.275,0-0.5,0.225-0.5,0.5  l0,0C20,37.775,20.225,38,20.5,38z"/>
</svg>
